<!-- Copyright 2000-2022 JetBrains s.r.o. and contributors. Use of this source code is governed by the Apache 2.0 license. -->
<svg width="16" height="16" viewBox="0 0 16 16" fill="none" xmlns="http://www.w3.org/2000/svg">
<path d="M14.0449 3.6606C14.0966 4.17109 13.9753 4.77182 13.873 5.1986C13.7812 5.58124 13.5225 6.49124 13.1429 7.32503C12.7299 8.23226 12.2015 9.02521 12.2015 9.02521L12.0882 8.87438C12.0882 8.87438 12.3858 8.47155 12.4646 8.23215C12.5727 7.90417 12.5578 7.56547 12.5325 7.41218C12.5198 7.33486 12.5062 7.25702 12.4927 7.17934C12.4341 6.84295 12.3759 6.50933 12.3875 6.23136C12.392 6.12395 12.423 5.96027 12.4558 5.7869C12.505 5.52664 12.5584 5.24453 12.5325 5.09813C12.5205 5.03046 12.3476 4.20277 11.9476 3.59251C11.6434 3.1285 11.1741 2.66765 10.8961 2.44486C10.6121 2.2173 9.8562 1.82588 9.8562 1.82588C9.8562 1.82588 10.399 1.70702 10.783 1.67934C10.8029 1.6779 10.8253 1.6761 10.8502 1.67412C11.1499 1.65016 11.7908 1.59892 12.3889 1.82588C13.0022 2.05861 13.5704 2.61404 13.6794 2.74015C13.814 2.89586 14.0031 3.24888 14.0449 3.6606Z" fill="#389FD6"/>
<path d="M6.4237 2.20524C6.41037 2.20524 6.35728 2.18703 6.27214 2.15781C5.4416 1.87288 1.56084 0.541474 1.77674 4.85891C1.82737 5.87158 3.22817 12.5212 4.89899 10.5127C5.21093 10.1375 5.46532 9.86985 5.65272 9.67266C5.82845 9.48774 5.94527 9.36482 5.99538 9.27341C6.02167 9.29018 6.018 9.28059 5.99848 9.26763L5.99538 9.27341C5.95956 9.25056 5.86812 9.17879 5.68537 9C5.43244 8.75254 5.31805 8.44688 5.23677 8.22971C5.22532 8.19912 5.21448 8.17016 5.20405 8.14349C5.17386 8.06629 5.13731 7.81156 5.14198 7.47667C5.14402 7.32987 5.16262 7.16767 5.18205 6.99826C5.19906 6.84997 5.2167 6.69615 5.22442 6.54232C5.23387 6.35412 5.22443 6.16588 5.2155 5.98768C5.2098 5.87395 5.2043 5.76431 5.20405 5.66138C5.20336 5.37946 5.25143 4.08655 5.55898 3.46298C5.69941 3.17824 5.83525 2.90399 5.99848 2.6844C6.17386 2.44848 6.35283 2.27565 6.40971 2.22072C6.42734 2.2037 6.43324 2.198 6.4237 2.20524Z" fill="#389FD6"/>
<path d="M14.0925 9.67625C14.0925 9.67625 13.267 9.75912 12.9756 9.73109C12.6847 9.70311 12.4744 9.60439 12.3448 9.54353C12.2883 9.51702 12.2472 9.49769 12.2213 9.49453C12.0225 9.47017 11.8356 9.68017 11.8032 9.73109C11.7251 9.85417 11.6069 10.2079 11.8032 10.363C12.0604 10.5662 12.6891 10.5531 12.9621 10.4883C13.7376 10.3044 14.0925 9.67625 14.0925 9.67625Z" fill="#389FD6"/>
<path d="M7.86703 10.1015C7.86703 9.82534 7.71405 9.63119 7.43791 9.63119C7.34988 9.63119 7.18456 9.77769 7.01223 9.93039C6.90344 10.0268 6.79186 10.1257 6.69517 10.1917C6.58498 10.267 6.33175 10.3638 6.10415 10.4508C5.85545 10.5458 5.63736 10.6292 5.67 10.66C5.71974 10.7069 6.17877 10.9504 6.62105 10.9323C6.71762 10.9284 7.17404 10.8837 7.47126 10.7022C7.7462 10.5343 7.86703 10.2342 7.86703 10.1015Z" fill="#389FD6"/>
<path fill-rule="evenodd" clip-rule="evenodd" d="M6.99997 9.25676C6.99997 9.25676 7.16011 8.61225 7.29511 8.36904C7.49997 7.99999 7.65621 7.4504 7.65621 6.99999C7.65621 6.88738 7.65784 6.78065 7.6594 6.67889C7.6667 6.20131 7.67233 5.83309 7.49997 5.48092C7.49602 5.47285 7.49176 5.46378 7.48712 5.45389C7.43276 5.33811 7.32575 5.11015 7.04237 5.05831C6.36161 4.93377 5.49997 5.51861 5.49997 5.51861C5.49997 5.51861 5.52297 5.88801 5.52297 6.04591C5.52297 6.6173 5.51169 6.9572 5.49997 7.05824L5.48975 7.1462C5.46407 7.36687 5.45447 7.44942 5.45088 7.53222C5.44873 7.5817 5.44873 7.63127 5.44873 7.71046C5.44873 7.98493 5.45493 7.99921 5.57957 8.28619L5.60118 8.33598C5.71895 8.60785 5.95578 8.9174 6.31165 9.09447C6.50569 9.19101 6.99997 9.25676 6.99997 9.25676ZM6.89944 6.08283C7.06539 6.11635 7.20744 5.92109 7.21645 5.82755C7.22545 5.73392 7.09811 5.63078 6.93181 5.59725C6.76576 5.56369 6.62365 5.61255 6.61486 5.70595C6.6057 5.79958 6.73319 6.04945 6.89944 6.08283Z" fill="#389FD6"/>
<path d="M7.54152 8.56567C7.48175 8.66877 7.45237 8.77495 7.42214 8.88422C7.40996 8.92828 7.39763 8.97284 7.38311 9.0179C7.34743 9.12867 7.25787 9.29932 7.25787 9.29932C7.25787 9.29932 7.51791 9.33933 7.62088 9.35931C7.80452 9.39495 7.92981 9.49133 7.96352 9.55496C8.11162 9.83446 8.11636 10.0123 8.12143 10.2025C8.12247 10.2413 8.12352 10.2807 8.12581 10.3216C8.12906 10.3797 8.12805 10.5474 8.12666 10.776C8.12231 11.4952 8.1143 12.8178 8.22405 13.2312C8.27234 13.4131 8.32018 13.5887 8.40375 13.7374C8.53028 13.9625 8.69562 14.126 8.72716 14.1563C8.86258 14.2863 9.28661 14.5427 9.72573 14.4597C9.95328 14.4167 10.4443 14.1625 10.7328 13.7374C11.0572 13.2593 11.1696 12.4542 11.2125 12.1403C11.3296 11.2836 11.3982 10.4122 11.4075 10.2937L11.409 10.2756C11.4208 10.1264 11.4496 9.76443 11.6393 9.51426C11.728 9.39722 12.0389 9.29932 12.0389 9.29932C12.0389 9.29932 11.7125 8.87521 11.6085 8.70764C11.3885 8.35303 11.1657 7.89957 11.0483 7.66048C11.0183 7.59934 10.9951 7.55219 10.9806 7.52433C10.8855 7.34098 10.821 7.19655 10.7737 7.09057C10.7584 7.05639 10.7449 7.0262 10.7328 7C10.5 6.49789 10.3985 5.75355 10.4126 5.64916C10.5 5 10.9076 4.75332 11.3291 4.68995C11.5973 4.64963 12.12 4.68995 12.12 4.68995C12.12 4.68995 11.8925 4.16096 11.7731 3.94823C11.5704 3.58727 11.3552 3.32568 11.2125 3.16346C10.7739 2.66502 10.2257 2.3235 9.77798 2.13892C9.30357 1.94333 8.80334 1.80339 8.33182 1.80339C7.635 1.80339 7.05804 2.01493 6.62338 2.37947C6.02453 2.88171 5.74874 3.68126 5.69578 4C5.69578 4 5.62135 4.23651 5.57378 4.49476C5.52353 4.76755 5.5 5.13284 5.5 5.13284C5.5 5.13284 5.9812 4.90655 6.16704 4.84734C6.49805 4.74189 6.71328 4.73828 6.81264 4.73661L6.84162 4.73598C7.16569 4.72504 7.7278 5.033 7.81261 5.48736C7.85052 5.69046 7.98332 6.68808 7.96352 6.9174C7.95968 6.96187 7.95704 7.01412 7.95409 7.07249C7.94565 7.2395 7.93468 7.45662 7.88587 7.68496C7.82083 7.98926 7.68772 8.3135 7.54152 8.56567Z" fill="#389FD6"/>
<path fill-rule="evenodd" clip-rule="evenodd" d="M11.9206 8.62457C12.0011 8.56129 12.1998 8.0368 12.2285 7.83368C12.2495 7.68519 12.2132 7.38855 12.1831 7.14283C12.1721 7.05246 12.1619 6.96895 12.1557 6.90226C12.1499 6.84009 12.1357 6.75174 12.122 6.66618C12.1073 6.57455 12.0931 6.48612 12.0903 6.43648C12.0839 6.32363 12.0961 6.222 12.1064 6.1369C12.1126 6.08461 12.1182 6.03857 12.1182 6C12.1182 5.91087 12.1445 5.80229 12.1754 5.67426C12.1929 5.60201 12.2119 5.52355 12.2285 5.4389C12.2527 5.31556 12.2789 5.02942 12.2789 5.02942C12.2789 5.02942 11.9499 4.9831 11.8305 4.97422C11.6995 4.96448 11.6047 4.96939 11.5462 4.97242C11.5269 4.97342 11.5115 4.97422 11.5001 4.97422C11.4101 4.97422 11.2115 5.00323 11.0483 5.09534C10.9968 5.12436 10.8394 5.2526 10.7653 5.40796C10.7289 5.48433 10.6923 5.71976 10.7253 5.96654C10.7646 6.26073 10.8815 6.57105 10.9231 6.64728C10.9672 6.72785 11.039 6.88644 11.1246 7.0754C11.169 7.17329 11.2171 7.27939 11.2669 7.38694C11.5411 7.97956 11.8681 8.66588 11.9206 8.62457ZM11.7534 5.59857C11.7624 5.69221 11.6351 5.94208 11.4688 5.97547C11.3028 6.00899 11.1607 5.81372 11.1516 5.72018C11.1428 5.62654 11.2702 5.5234 11.4363 5.48987C11.6024 5.45635 11.7444 5.50512 11.7534 5.59857Z" fill="#389FD6"/>
</svg>
