<svg width="16" height="16" viewBox="0 0 16 16" fill="none" xmlns="http://www.w3.org/2000/svg">
<path d="M7 13H1V2.05128C1 2.02296 1.02296 2 1.05128 2H4.97888C5.6157 2.03458 6.22162 2.28559 6.69633 2.71149L7.98457 4H15V7H7V13Z" fill="#9AA7B0" fill-opacity="0.8"/>
<path fill-rule="evenodd" clip-rule="evenodd" d="M16 8H8V10H16V8ZM9 9.5C9 9.16667 9 8.83333 9 8.5H11V9.5H9Z" fill="#40B6E0" fill-opacity="0.7"/>
<path fill-rule="evenodd" clip-rule="evenodd" d="M16 11H8V13H16V11ZM9 12.5C9 12.1667 9 11.8333 9 11.5H11C11 11.8333 11 12.1667 11 12.5H9Z" fill="#40B6E0" fill-opacity="0.7"/>
<path fill-rule="evenodd" clip-rule="evenodd" d="M16 14H8V16H16V14ZM9 15.5C9 15.1667 9 14.8333 9 14.5H11C11 14.8333 11 15.1667 11 15.5H9Z" fill="#40B6E0" fill-opacity="0.7"/>
</svg>
